<svg version="1.2" xmlns="http://www.w3.org/2000/svg" viewBox="0 0 100 100" width="100" height="100">
	<title>linkedin-svg</title>
	<style>
		.s0 { fill: #ffffff } 
	</style>
	<path id="Layer" fill-rule="evenodd" class="s0" d="m92.6 0c4.1 0 7.4 3.2 7.4 7.2v85.6c0 4-3.3 7.2-7.4 7.2h-85.2c-4.1 0-7.4-3.2-7.4-7.2v-85.6c0-4 3.3-7.2 7.4-7.2zm-61.8 22.4c0-4.8-3.8-8.6-8.6-8.6-4.7 0-8.6 3.8-8.6 8.6 0 4.7 3.9 8.6 8.6 8.6 4.8 0 8.6-3.9 8.6-8.6zm-16 62.8h14.8l0.1-47.7h-14.9zm70.4-26.2c0-12.8-2.8-22.7-17.8-22.7-7.2 0-12 3.9-14 7.7h-0.2v-6.5h-14.2v47.7h14.8v-23.6c0-6.2 1.1-12.3 8.9-12.3 7.6 0 7.7 7.2 7.7 12.7v23.2h14.8c0 0 0-26.2 0-26.2z"/>
</svg>